<svg xmlns="http://www.w3.org/2000/svg" viewBox="0 0 1113.7 1027.32393"><defs><style>.cls-1{fill:#2f348b;}.cls-2,.cls-5{fill:#fff;}.cls-3{fill:#e52528;}.cls-4{fill:none;}.cls-4,.cls-5{stroke:#fff;stroke-miterlimit:10;}</style></defs><title>nasagram</title><g id="Calque_8" data-name="Calque 8"><polygon class="cls-1" points="146.297 121.644 311.914 46.113 835.659 62.964 990.382 221.859 1025.616 415.115 994.978 843.513 820.108 959.134 371.489 979.049 153.907 888.666 78.893 666.539 114.127 231.475 146.297 121.644"/></g><g id="Calque_4" data-name="Calque 4"><path class="cls-2" d="M974.87,723.64c145.43-1.88,267.19,118.78,266.56,265.02-.63,144.39-120.37,264.19-265.79,262.72S713.35,1127.71,715.21,984.06C717.05,842.61,833.42,725.47,974.87,723.64Zm173.11,272.68c5.19-96.06-73.68-183.58-173.11-182.3-98.64,1.27-174.94,89.38-168.51,184.6,5.88,86.95,79.49,160.88,170.81,160.85C1069.3,1159.43,1143.23,1084.12,1147.98,996.32Z" transform="translate(-420.32 -474.54649)"/><path class="cls-2" d="M1310.36,712.91c.59,33.76-27.24,64.22-62.04,63.58-33.84-.63-60.36-30.41-59.75-63.58.62-32.68,27.46-61.48,61.28-61.27C1283.54,651.85,1309.8,680.75,1310.36,712.91Z" transform="translate(-420.32 -474.54649)"/><path class="cls-2" d="M1308.7217,712.91c.59,33.76-27.24,64.22-62.04,63.58-33.84-.63-60.36-30.41-59.75-63.58.62-32.68,27.46-61.48,61.28-61.27C1281.9017,651.85,1308.1617,680.75,1308.7217,712.91Z" transform="translate(-420.32 -474.54649)"/><path class="cls-2" d="M973.2317,723.64c145.43-1.88,267.19,118.78,266.56,265.02-.63,144.39-120.37,264.19-265.79,262.72s-262.29-123.67-260.43-267.32C715.4117,842.61,831.7817,725.47,973.2317,723.64Zm173.11,272.68c5.19-96.06-73.68-183.58-173.11-182.3-98.64,1.27-174.94,89.38-168.51,184.6,5.88,86.95,79.49,160.88,170.81,160.85C1067.6617,1159.43,1141.5917,1084.12,1146.3417,996.32Z" transform="translate(-420.32 -474.54649)"/></g><g id="Calque_5" data-name="Calque 5"><path class="cls-3" d="M1148.22,844.66c296.67-142.47,385.8-294.13,385.8-294.13-74.68,204.51-327.06,388.34-372,414.38-44.93,26.05-338.04,230.3-404.42,275.75-66.39,45.45-128.69,110.81-128.69,110.81H607.98c45.45-52.6,173.11-148.6,266.04-210.9,92.94-62.29,230.81-144,307.41-203.74,76.59-59.74,99.57-94.98,99.57-94.98-142.98,87.32-473.33,169.18-473.33,169.18s-228.8,41.2-372.03,132.35c0,0-12.26-2.29-15.32-1.53,0,0,113.33-94.25,386.03-165.46C926.68,944.96,1148.22,844.66,1148.22,844.66Z" transform="translate(-420.32 -474.54649)"/></g><g id="Calque_6" data-name="Calque 6"><path class="cls-2" d="M1221.02,888.94a259.81329,259.81329,0,0,1,19.41,99.72c-.63,144.39-120.37,264.19-265.79,262.72a258.94278,258.94278,0,0,1-133.73-38.75l74.11-64.74a166.27521,166.27521,0,0,0,61.15,11.58c92.13-.04,166.06-75.35,170.81-163.15a169.1204,169.1204,0,0,0-9.62-65.77Z" transform="translate(-420.32 -474.54649)"/><path class="cls-2" d="M1309.36,712.91c.59,33.76-27.24,64.22-62.04,63.58-33.84-.63-60.36-30.41-59.75-63.58.62-32.68,27.46-61.48,61.28-61.27C1282.54,651.85,1308.8,680.75,1309.36,712.91Z" transform="translate(-420.32 -474.54649)"/><path class="cls-2" d="M856.69,1109.68l-74.87,53.43c-42.76-47.85-68.49-111.05-67.61-179.05,1.84-141.45,118.21-258.59,259.66-260.42,59.66-.77,115.33,19.08,160.21,52.86l-61.9,68.22a166.48148,166.48148,0,0,0-98.31-30.7c-98.64,1.27-174.94,89.38-168.51,184.6C808.23,1041.12,827.29,1080.52,856.69,1109.68Z" transform="translate(-420.32 -474.54649)"/><path class="cls-4" d="M856.69,1109.68l-74.87,53.43c-42.76-47.85-68.49-111.05-67.61-179.05,1.84-141.45,118.21-258.59,259.66-260.42,59.66-.77,115.33,19.08,160.21,52.86l-61.9,68.22" transform="translate(-420.32 -474.54649)"/><path class="cls-4" d="M856.69,1109.68c-29.4-29.16-48.46-68.56-51.33-111.06-6.43-95.22,69.87-183.33,168.51-184.6a166.48148,166.48148,0,0,1,98.31,30.7l102.34-30.71" transform="translate(-420.32 -474.54649)"/><path class="cls-4" d="M840.91,1212.63a258.94278,258.94278,0,0,0,133.73,38.75c145.42,1.47,265.16-118.33,265.79-262.72a259.81329,259.81329,0,0,0-19.41-99.72l-83.66,41.61a169.1204,169.1204,0,0,1,9.62,65.77c-4.75,87.8-78.68,163.11-170.81,163.15a166.27521,166.27521,0,0,1-61.15-11.58Z" transform="translate(-420.32 -474.54649)"/></g><g id="Calque_3" data-name="Calque 3"><path class="cls-2" d="M1478.87,709.09c5.75,43.65,18.39,319.4,5.75,521.61s-170.05,245.87-242.43,260.81-415.91,12.64-540,0c-124.08-12.64-220.38-120.93-233.62-275.36-9.19-107.24-3.06-424.34,9.2-520.85C490.02,598.79,585,531,585,531s49.4-44.81,187.28-51.7c137.87-6.9,307.91-5.75,409.02,0,101.1,5.74,125.23,17.23,187.27,51.7C1430.62,565.47,1473.13,665.43,1478.87,709.09Zm-81.2,479.94c10.48-166.45,0-393.42-4.76-429.36s-39.99-118.21-91.41-146.59c-51.41-28.37-71.41-37.83-155.2-42.55-83.79-4.73-224.72-5.68-338.98,0-114.26,5.67-155.21,42.55-155.21,42.55s-78.71,55.8-88.87,135.24c-10.15,79.44-15.23,340.46-7.61,428.73,10.97,127.12,90.77,216.25,193.61,226.66,102.83,10.4,387.54,12.29,447.52,0C1256.75,1391.41,1387.2,1355.48,1397.67,1189.03Z" transform="translate(-420.32 -474.54649)"/></g><g id="Calque_7" data-name="Calque 7"><path class="cls-5" d="M886.21277,621.76593A4.3099,4.3099,0,1,1,882,626.74469,4.3777,4.3777,0,0,1,886.21277,621.76593Z" transform="translate(-420.32 -474.54649)"/><path class="cls-5" d="M898.46808,642.25531a4.30956,4.30956,0,1,1-4.21277,4.40424A4.349,4.349,0,0,1,898.46808,642.25531Z" transform="translate(-420.32 -474.54649)"/><path class="cls-5" d="M933.31915,692.04254c1.61713-.21326,3.19544,1.5979,2.87232,2.87238-.29108,1.14819-2.11151,1.80529-3.44678,1.34039a2.36554,2.36554,0,0,1-1.53192-1.53192A2.48892,2.48892,0,0,1,933.31915,692.04254Z" transform="translate(-420.32 -474.54649)"/><path class="cls-5" d="M666.383,780.70215a2.79016,2.79016,0,0,1,2.87231,2.68085,2.83148,2.83148,0,0,1-3.06384,2.68084,2.76564,2.76564,0,0,1-2.48932-2.29791A2.81894,2.81894,0,0,1,666.383,780.70215Z" transform="translate(-420.32 -474.54649)"/><path class="cls-5" d="M675.383,804.82977a4.69631,4.69631,0,1,1-4.59577,4.59577A4.75025,4.75025,0,0,1,675.383,804.82977Z" transform="translate(-420.32 -474.54649)"/><path class="cls-5" d="M718.65955,838.91492a3.8389,3.8389,0,1,1-3.82978,4.21277A3.90671,3.90671,0,0,1,718.65955,838.91492Z" transform="translate(-420.32 -474.54649)"/><path class="cls-5" d="M742.40424,825.89362A4.8543,4.8543,0,0,1,747,830.29785a4.72384,4.72384,0,1,1-9.383.19153A4.86476,4.86476,0,0,1,742.40424,825.89362Z" transform="translate(-420.32 -474.54649)"/><path class="cls-5" d="M675,876.25531a4.87069,4.87069,0,0,1,4.59576,4.0213,5.04081,5.04081,0,0,1-5.17022,5.3617,4.88,4.88,0,0,1-4.59577-4.40424A4.98949,4.98949,0,0,1,675,876.25531Z" transform="translate(-420.32 -474.54649)"/><path class="cls-5" d="M612.76593,841.40424a2.97627,2.97627,0,0,1-.19147,5.93621,2.95845,2.95845,0,0,1-2.87231-2.29791A3.12829,3.12829,0,0,1,612.76593,841.40424Z" transform="translate(-420.32 -474.54649)"/><path class="cls-5" d="M610.85107,803.68085A5.95693,5.95693,0,1,1,605.29785,810,5.94408,5.94408,0,0,1,610.85107,803.68085Z" transform="translate(-420.32 -474.54649)"/><path class="cls-5" d="M576.76593,832.0213a2.697,2.697,0,1,1,.19153,5.3617,2.78857,2.78857,0,0,1-2.68085-2.10639A2.83338,2.83338,0,0,1,576.76593,832.0213Z" transform="translate(-420.32 -474.54649)"/><path class="cls-5" d="M580.78723,884.10638a2.83916,2.83916,0,0,1,2.87232,3.06385,2.58686,2.58686,0,0,1-5.17017,0A2.79888,2.79888,0,0,1,580.78723,884.10638Z" transform="translate(-420.32 -474.54649)"/><path class="cls-5" d="M723.06384,902.29785a2.76478,2.76478,0,0,1,2.48932,3.25531,2.6659,2.6659,0,0,1-2.48932,2.10639,2.68085,2.68085,0,0,1,0-5.3617Z" transform="translate(-420.32 -474.54649)"/><path class="cls-5" d="M604.91492,977.55316a5.74842,5.74842,0,1,1-5.36176,6.89368A5.93843,5.93843,0,0,1,604.91492,977.55316Z" transform="translate(-420.32 -474.54649)"/><path class="cls-5" d="M1171.34045,1301.74463a2.21515,2.21515,0,0,1,2.48938,2.298,2.12685,2.12685,0,0,1-2.48938,1.72339A1.99557,1.99557,0,0,1,1170,1304.234,2.15554,2.15554,0,0,1,1171.34045,1301.74463Z" transform="translate(-420.32 -474.54649)"/><path class="cls-5" d="M1200.06384,1279.72339a5.94081,5.94081,0,1,1-5.74475,6.89368A6.08753,6.08753,0,0,1,1200.06384,1279.72339Z" transform="translate(-420.32 -474.54649)"/><path class="cls-5" d="M1176.70215,1225.14893a3.49983,3.49983,0,0,1,3.82971,3.06384,3.65276,3.65276,0,0,1-4.02124,3.82983,3.52835,3.52835,0,0,1,.19153-6.89367Z" transform="translate(-420.32 -474.54649)"/><path class="cls-5" d="M1146.82983,1267.85107a6.22,6.22,0,0,1,5.93616,5.74463,6.328,6.328,0,0,1-6.70215,6.51062,6.2043,6.2043,0,0,1-5.55322-5.5531A6.30273,6.30273,0,0,1,1146.82983,1267.85107Z" transform="translate(-420.32 -474.54649)"/><path class="cls-5" d="M1153.91492,1310.93616a3.55889,3.55889,0,1,1-.38306,7.08508,3.55072,3.55072,0,0,1-2.87231-3.25525A3.61058,3.61058,0,0,1,1153.91492,1310.93616Z" transform="translate(-420.32 -474.54649)"/><path class="cls-5" d="M1195.08508,1335.25537a3.44951,3.44951,0,1,1-3.44677,3.63831A3.62688,3.62688,0,0,1,1195.08508,1335.25537Z" transform="translate(-420.32 -474.54649)"/><path class="cls-2" d="M1269.19149,1246.02128s-2.10638,32.97626-8.80851,34.10515-30.6383,4.5757-30.6383,4.5757,32.55319,3.44955,33.70213,6.895,5.74468,32.55182,5.74468,32.55182,2.68085-30.44406,5.93617-32.55182,33.89362-6.512,33.89362-6.512-30.82979-2.298-34.85107-5.36175C1274.17021,1279.72336,1269.19149,1251.766,1269.19149,1246.02128Z" transform="translate(-420.32 -474.54649)"/><path class="cls-2" d="M732.04255,764.61633s-2.10638,32.97627-8.80851,34.10516-30.6383,4.5757-30.6383,4.5757,32.5532,3.44955,33.70213,6.895,5.74468,32.55181,5.74468,32.55181,2.68085-30.44406,5.93617-32.55181,33.89362-6.512,33.89362-6.512-30.82979-2.298-34.85106-5.36174C737.02128,798.31842,732.04255,770.361,732.04255,764.61633Z" transform="translate(-420.32 -474.54649)"/><path class="cls-2" d="M936.04238,596.1908s-2.10638,32.97627-8.80851,34.10516-30.6383,4.57569-30.6383,4.57569,32.55319,3.44956,33.70213,6.895,5.74468,32.55182,5.74468,32.55182,2.68085-30.44406,5.93617-32.55182,33.89362-6.512,33.89362-6.512-30.82979-2.298-34.85107-5.36174C941.0211,629.89289,936.04238,601.93548,936.04238,596.1908Z" transform="translate(-420.32 -474.54649)"/><path class="cls-2" d="M688.7234,888.383s-2.29787,10.27659-4.91489,12.57447-12.51064,4.85106-12.51064,4.85106,12.19149,2.10638,14.10639,7.59575,3.31914,9.89361,3.31914,9.89361,1.53192-11.87234,7.02128-13.7234,10.85106-3.06383,10.85106-3.06383-12.76595-1.46809-14.80851-6.6383A64.71966,64.71966,0,0,1,688.7234,888.383Z" transform="translate(-420.32 -474.54649)"/></g></svg>