<?xml version="1.0" encoding="utf-8"?>
<!-- Generator: Adobe Illustrator 23.0.1, SVG Export Plug-In . SVG Version: 6.00 Build 0)  -->
<svg version="1.1" id="Layer_1" xmlns="http://www.w3.org/2000/svg" xmlns:xlink="http://www.w3.org/1999/xlink" x="0px" y="0px"
	 viewBox="0 0 110 92" style="enable-background:new 0 0 110 92;" xml:space="preserve">
<style type="text/css">
	.st0{fill:#0B3D91;}
	.st1{fill:#FFFFFF;}
	.st2{fill:#FC3D21;}
</style>
<circle class="st0" cx="50" cy="45" r="40.1"/>
<rect class="st0" width="110" height="92"/>
<g>
	<ellipse class="st1" cx="48.5" cy="5.9" rx="0.5" ry="0.6"/>
	<ellipse class="st1" cx="53.7" cy="6.7" rx="0.5" ry="0.6"/>
	<ellipse class="st1" cx="60.4" cy="16.8" rx="0.5" ry="0.6"/>
	<ellipse class="st1" cx="23.2" cy="69.2" rx="0.5" ry="0.6"/>
	<ellipse class="st1" cx="24.5" cy="73.7" rx="0.5" ry="0.6"/>
	<ellipse class="st1" cx="18.2" cy="69.9" rx="0.4" ry="0.4"/>
	<ellipse class="st1" cx="38.8" cy="78.7" rx="0.4" ry="0.4"/>
	<ellipse class="st1" cx="70.9" cy="71.3" rx="0.4" ry="0.4"/>
	<ellipse class="st1" cx="80.3" cy="60" rx="0.4" ry="0.4"/>
	<ellipse class="st1" cx="34.4" cy="20.1" rx="0.4" ry="0.4"/>
	<ellipse class="st1" cx="44.7" cy="11.7" rx="0.4" ry="0.4"/>
	<ellipse class="st1" cx="43.6" cy="10.9" rx="0.4" ry="0.4"/>
	<ellipse class="st1" cx="42.6" cy="10.1" rx="0.4" ry="0.4"/>
	<ellipse class="st1" cx="36.1" cy="22.3" rx="0.4" ry="0.4"/>
	<ellipse class="st1" cx="51.2" cy="0.4" rx="0.4" ry="0.4"/>
	<ellipse class="st1" cx="53.7" cy="12.5" rx="0.4" ry="0.4"/>
	<ellipse class="st1" cx="49.8" cy="10.2" rx="0.4" ry="0.4"/>
	<ellipse class="st1" cx="43.1" cy="13.4" rx="0.4" ry="0.4"/>
	<ellipse class="st1" cx="72.7" cy="82.4" rx="0.4" ry="0.4"/>
	<ellipse class="st1" cx="22.5" cy="72.1" rx="0.4" ry="0.4"/>
	<ellipse class="st1" cx="48.8" cy="77.5" rx="0.4" ry="0.4"/>
	<ellipse class="st1" cx="30.4" cy="71.7" rx="0.4" ry="0.4"/>
	<ellipse class="st1" cx="33.6" cy="77.7" rx="0.4" ry="0.4"/>
	<ellipse class="st1" cx="57.7" cy="73.9" rx="0.4" ry="0.4"/>
	<ellipse class="st1" cx="71" cy="65.6" rx="0.4" ry="0.4"/>
	<ellipse class="st1" cx="81.1" cy="70.7" rx="0.4" ry="0.4"/>
	<ellipse class="st1" cx="84.5" cy="73.1" rx="0.4" ry="0.4"/>
	<ellipse class="st1" cx="85.1" cy="66.5" rx="0.4" ry="0.4"/>
	<ellipse class="st1" cx="35" cy="57.1" rx="0.4" ry="0.4"/>
	<ellipse class="st1" cx="35.2" cy="66.7" rx="0.5" ry="0.6"/>
	<ellipse class="st1" cx="38.2" cy="73.8" rx="0.5" ry="0.6"/>
	<ellipse class="st1" cx="74.4" cy="66.4" rx="0.5" ry="0.6"/>
	<ellipse class="st1" cx="87.5" cy="65.6" rx="0.5" ry="0.6"/>
	<ellipse class="st1" cx="81" cy="62.5" rx="0.5" ry="0.6"/>
	<ellipse class="st1" cx="74.4" cy="62.8" rx="0.5" ry="0.6"/>
	<path class="st1" d="M60.8,5.6l1.3-0.1l-1.3-0.1c0-0.3-0.2-0.5-0.5-0.5l-0.1-1.4l-0.1,1.4c-0.2,0.1-0.4,0.3-0.4,0.5l-1.3,0.1
		l1.3,0.1c0,0.2,0.2,0.4,0.4,0.5l0.1,1.4l0.1-1.4C60.6,6,60.8,5.8,60.8,5.6z"/>
	<path class="st1" d="M39.7,21.1l1.3-0.1l-1.3-0.1c0-0.3-0.2-0.5-0.5-0.5L39.1,19L39,20.4c-0.2,0.1-0.4,0.3-0.4,0.5L37.3,21l1.3,0.1
		c0,0.2,0.2,0.4,0.4,0.5l0.1,1.4l0.1-1.4C39.4,21.6,39.6,21.4,39.7,21.1z"/>
	<path class="st1" d="M86.6,62.2l1.3-0.1L86.6,62c0-0.3-0.2-0.5-0.5-0.5L86,60.1l-0.1,1.4c-0.2,0.1-0.4,0.3-0.4,0.5l-1.3,0.1
		l1.3,0.1c0,0.2,0.2,0.4,0.4,0.5l0.1,1.4l0.1-1.4C86.3,62.6,86.5,62.4,86.6,62.2z"/>
	<path class="st1" d="M35.4,83.7l1.3-0.1l-1.3-0.1c0-0.3-0.2-0.5-0.5-0.5l-0.1-1.4l-0.1,1.4c-0.2,0.1-0.4,0.3-0.4,0.5L33,83.6
		l1.3,0.1c0,0.2,0.2,0.4,0.4,0.5l0.1,1.4l0.1-1.4C35.2,84.1,35.4,83.9,35.4,83.7z"/>
	<path class="st1" d="M82.6,73.2l1.3-0.1L82.6,73c0-0.3-0.2-0.5-0.5-0.5L82,71.1l-0.1,1.4c-0.2,0.1-0.4,0.3-0.4,0.5l-1.3,0.1
		l1.3,0.1c0,0.2,0.2,0.4,0.4,0.5l0.1,1.4l0.1-1.4C82.4,73.6,82.5,73.4,82.6,73.2z"/>
	<path class="st2" d="M64.5,33.2c-5.5,2.4-10.8,4.5-15.3,6C40.1,42.4,15.1,51,0,61.8l1.3,0.5c9.2-5.8,15.2-7.6,20.9-9.6
		c6.2-2.2,26.4-7.4,35.6-10.3c3.1-1,6.7-2.2,10.5-3.8c-0.9-1.4-1.8-2.8-2.8-4.1C65.1,34.1,64.8,33.7,64.5,33.2z M70.8,42.1
		c-1.3,1-2.4,1.8-3.2,2.3C63,47.3,41.1,63.9,36.1,67.7S17.2,86.1,13.1,90.3L13,92c13.2-13.1,17.3-16.3,22.5-20.8
		c6.5-5.5,19.9-15.6,24.4-18.8c4.4-3.1,8.3-5.9,11.8-8.5c-0.1-0.1-0.1-0.2-0.2-0.3C71.3,43.1,71,42.6,70.8,42.1z M87.9,21.1
		c-6.1,4-15.8,8.8-25.2,12.9c0.2,0.3,0.4,0.6,0.7,0.9c1,1.5,2,2.9,3,4.4c7.4-3,15.5-7.1,21.9-12C85.1,30.6,75,39,68.9,43.7
		c0.3,0.6,0.6,1.1,0.9,1.7c9.3-6.9,15.6-12.1,19.3-15.5c5-4.7,16.6-15.3,20.9-29.4C102.3,11.3,93.3,17.6,87.9,21.1z"/>
</g>
</svg>
